PathFileType	4	(X/Y/Z)	Run_300 01
DataRate	CameraRate	NumFrames	NumMarkers	Units	OrigDataRate	OrigDataStartFrame	OrigNumFrames
120	120	6	42	mm	120	480	128
Frame#	Time	LASI			RASI			LPSI			RPSI			RTH1			RTH3			LTH1			LTH2			LTH3			RTB1			RTB2			RTB3			LTB1			LTB2			LTB3			RCAL			RTOE			RMT5			LCAL			LTOE			LMT5			LACR			RACR			CLAV			C7			RUA1			RUA2			RUA3			RLEL			RMEL			LUA1			LUA2			LUA3			LLEL			LMEL			RFAsuperior			RFAradius			RFAulna			LFAsuperior			LFAradius			LFAulna			RTH2		
		X1	Y1	Z1	X2	Y2	Z2	X3	Y3	Z3	X4	Y4	Z4	X5	Y5	Z5	X6	Y6	Z6	X7	Y7	Z7	X8	Y8	Z8	X9	Y9	Z9	X10	Y10	Z10	X11	Y11	Z11	X12	Y12	Z12	X13	Y13	Z13	X14	Y14	Z14	X15	Y15	Z15	X16	Y16	Z16	X17	Y17	Z17	X18	Y18	Z18	X19	Y19	Z19	X20	Y20	Z20	X21	Y21	Z21	X22	Y22	Z22	X23	Y23	Z23	X24	Y24	Z24	X25	Y25	Z25	X26	Y26	Z26	X27	Y27	Z27	X28	Y28	Z28	X29	Y29	Z29	X30	Y30	Z30	X31	Y31	Z31	X32	Y32	Z32	X33	Y33	Z33	X34	Y34	Z34	X35	Y35	Z35	X36	Y36	Z36	X37	Y37	Z37	X38	Y38	Z38	X39	Y39	Z39	X40	Y40	Z40	X41	Y41	Z41	X42	Y42	Z42	

480	  4.000000	1106.471231	1005.588388	-411.867547	1092.676085	998.241579	-172.335229	936.814422	1047.171707	-359.358664	933.306506	1047.024787	-260.117090	1001.720821	848.352268	-130.565136	957.205082	616.217291	-173.682046	1100.060280	853.197635	-480.927764	1222.004362	814.288694	-453.461415	1230.026851	679.047989	-458.119850	918.735397	380.957542	-240.947655	841.125416	361.147267	-184.784864	801.648095	243.275464	-249.894247	1247.378062	475.029395	-388.883181	1140.975577	443.714661	-432.525948	1086.309887	358.811192	-368.374429	617.654260	183.328656	-278.972369	797.945798	 79.357736	-303.985660	762.844242	 45.954352	-202.126943	912.254455	359.451056	-346.851171	1043.310571	196.972092	-331.896189	1010.221504	189.230604	-432.407495	1050.577607	1496.267930	-461.647108	1102.262288	1470.897975	-104.365639	1152.112823	1433.723700	-276.078739	1040.485591	1519.434328	-287.771534	1079.515623	1383.500003	-60.196704	1084.866119	1294.601047	-76.358075	998.251218	1295.255265	-47.937148	978.362638	1182.100796	-25.339636	954.019913	1178.701498	-91.643382	988.475073	1452.582174	-505.478387	924.367525	1418.619044	-461.833620	933.584186	1365.445475	-530.159729	818.683343	1314.089088	-542.829549	809.366231	1309.620286	-470.112815	1076.125446	1167.271126	-33.304038	1228.371065	1111.830732	-106.771175	1199.957114	1049.944616	-97.796583	876.546378	1254.242549	-560.536100	995.385962	1102.091382	-521.957222	937.442860	1068.830568	-535.400240	1039.583352	694.691116	-159.935511	
481	  4.008333	1106.775707	1013.989329	-412.214889	1095.238478	1003.408176	-174.455467	937.959683	1054.406305	-357.596364	935.437362	1053.693587	-258.124560	1002.479886	854.469930	-129.849683	948.511680	624.647112	-171.849933	1102.876295	863.386807	-481.198649	1222.858173	824.146813	-453.227126	1230.540778	687.615897	-457.811258	904.629467	389.252727	-238.050161	826.630026	370.377196	-181.895239	787.817117	251.571422	-246.101696	1258.431490	479.870981	-388.392326	1154.943046	439.483687	-432.270425	1107.202450	350.940731	-367.694160	605.223619	196.938836	-276.091119	776.902645	 80.298658	-303.044166	739.724788	 47.796057	-201.337812	933.816555	337.973080	-345.697072	1077.461720	186.481226	-330.227494	1044.717896	174.987873	-429.963291	1048.805006	1502.949682	-461.454556	1104.074903	1478.681884	-106.160771	1151.949590	1440.982902	-277.910603	1040.698076	1525.970829	-288.568202	1081.929321	1391.971335	-60.999521	1087.027464	1302.837284	-76.814340	1000.581634	1303.941940	-47.543660	981.578192	1190.664222	-23.882299	956.277058	1186.938318	-90.142898	986.238796	1461.715723	-504.822848	922.548906	1429.172664	-460.545605	929.900164	1375.602597	-529.414252	814.026125	1325.502553	-540.785602	805.887192	1321.601078	-467.549672	1079.593852	1178.660916	-33.521357	1231.756115	1127.299758	-110.182894	1205.823067	1064.532395	-100.822063	871.080912	1265.740399	-559.487395	991.954057	1114.491865	-522.807519	934.098522	1080.735246	-534.759588	1033.643030	700.175662	-160.196355	
482	  4.016667	1107.133789	1022.085910	-412.660740	1097.810656	1008.356635	-177.013045	939.407519	1061.448743	-355.829042	937.658299	1060.206528	-256.400167	1003.169808	860.354279	-129.012599	940.524255	633.061872	-170.325263	1105.128877	872.918011	-480.990585	1223.196509	832.909748	-453.463891	1229.639575	694.704123	-457.084211	891.708549	397.500586	-235.249510	813.253175	379.543691	-179.194846	775.097211	259.841186	-242.327063	1268.482360	484.059763	-388.748060	1168.755376	434.814526	-432.275783	1128.424139	343.134079	-367.178199	594.431054	211.102145	-272.620840	756.479946	 82.145667	-301.606987	717.368718	 50.696397	-200.300339	957.043875	316.676222	-344.464330	1112.038725	177.017572	-328.162596	1079.373251	161.108350	-427.302559	1047.471087	1509.027901	-461.430344	1105.808763	1486.274403	-108.015365	1151.873093	1447.732300	-279.585883	1041.020931	1532.097473	-289.487781	1084.272774	1400.385954	-61.884144	1089.065324	1310.969883	-77.136024	1002.733958	1312.681853	-47.281598	984.358721	1199.177420	-22.606511	958.123778	1195.120988	-88.822766	984.397619	1470.331958	-504.389697	921.296888	1438.995740	-459.348468	926.622409	1385.239695	-528.752022	809.871788	1336.231786	-538.916601	802.909697	1333.001986	-465.281367	1082.446395	1189.644540	-33.874160	1234.298791	1141.433875	-113.366873	1210.531337	1077.960187	-104.129646	866.112975	1276.516498	-558.480293	989.058104	1126.287464	-523.495438	931.417823	1091.964845	-534.030670	1028.181561	705.604574	-160.297826	
483	  4.025000	1107.479862	1029.555952	-413.062458	1100.271024	1013.087820	-179.257035	940.922486	1068.293026	-354.134410	939.842292	1066.523434	-254.908769	1003.641033	865.979864	-128.080579	933.360323	641.272991	-169.480081	1106.562670	881.674720	-480.385692	1223.060621	840.419441	-454.200533	1227.605852	700.351531	-455.909173	880.136344	405.649875	-232.988686	801.235866	388.564575	-176.913365	763.450526	268.103609	-238.955779	1277.549122	487.437591	-389.944665	1182.219231	429.844498	-432.523480	1149.836498	335.450495	-366.985928	585.138755	225.788263	-268.408942	736.732361	 85.182992	-299.745362	696.193337	 55.024702	-199.069489	981.735236	295.861946	-343.189625	1146.826731	168.615267	-325.642803	1114.033947	147.664522	-424.561289	1046.563282	1514.452271	-461.656533	1107.432469	1493.513058	-109.898841	1151.865555	1453.820751	-281.126372	1041.325936	1537.686330	-290.503706	1086.494402	1408.603373	-62.846170	1091.020514	1318.869600	-77.294043	1004.783876	1321.294907	-47.104528	986.718482	1207.433428	-21.513959	959.764890	1202.892058	-87.801139	982.892831	1478.313046	-504.135318	920.567048	1447.890273	-458.292635	923.731665	1394.179794	-528.233755	806.214582	1346.113432	-537.225834	800.361084	1343.586915	-463.335102	1084.706878	1199.889761	-34.347286	1236.120476	1153.998135	-116.340157	1214.149837	1090.006052	-107.623540	861.743701	1286.490127	-557.515586	986.685664	1137.312927	-524.101704	929.380222	1102.357170	-533.380888	1023.272442	710.915062	-160.336337	
484	  4.033333	1107.718478	1036.123216	-413.236978	1102.476587	1017.604665	-180.613362	942.313442	1074.874824	-352.577249	941.850176	1072.567722	-253.558274	1003.872842	871.332568	-127.066910	927.212576	649.060422	-169.502664	1107.054016	889.502560	-479.529969	1222.390332	846.384910	-455.418013	1224.665680	704.547886	-454.144325	870.128718	413.604795	-231.677230	791.000780	397.322955	-175.138733	752.899745	276.384646	-236.310199	1285.699467	489.921312	-391.639395	1195.241980	424.627055	-432.942150	1171.255744	327.963881	-367.130256	577.079705	240.853386	-263.476147	717.713350	 89.618476	-297.738880	676.671296	 61.011784	-197.735129	1007.477549	275.797007	-342.082812	1181.478521	161.291715	-322.653561	1148.711989	134.919909	-421.777750	1046.010599	1519.169100	-462.176381	1108.891083	1500.198449	-111.831750	1151.895327	1459.160164	-282.564755	1041.506975	1542.676096	-291.577761	1088.510561	1416.417887	-63.877369	1092.880323	1326.369714	-77.288211	1006.692863	1329.525192	-47.083207	988.664814	1215.211986	-20.602095	961.461047	1209.923533	-87.217056	981.727361	1485.527763	-504.053985	920.283642	1455.713341	-457.449764	921.226818	1402.240503	-527.912960	803.060026	1354.970055	-535.717158	798.172798	1353.100529	-461.715008	1086.407020	1209.086077	-34.932126	1237.317013	1164.771442	-119.101449	1216.776787	1100.435844	-111.014495	858.025676	1295.548825	-556.639633	984.869126	1147.415591	-524.700296	927.979948	1111.783987	-532.940820	1018.966377	716.066486	-160.415703	
485	  4.041667	1107.793642	1041.621509	-413.027323	1104.309096	1021.890133	-180.958356	943.521542	1081.033473	-351.191765	943.590458	1078.217228	-252.247643	1003.914824	876.377018	-126.008131	922.306861	656.170919	-170.350303	1106.589539	895.961048	-478.550098	1220.947470	850.404607	-457.020504	1220.865635	707.186648	-451.676219	861.846547	421.135755	-231.563091	782.985908	405.594947	-173.874107	743.388009	284.696114	-234.542110	1292.972337	491.526498	-393.294669	1207.893381	419.144260	-433.416891	1192.420043	320.778593	-367.432279	569.772771	256.051447	-258.018185	699.447230	 95.608966	-295.922834	659.059793	 68.663576	-196.383742	1033.730992	256.630783	-341.422357	1215.487959	155.096624	-319.388770	1183.491348	123.349141	-418.926169	1045.720889	1523.127225	-462.988627	1110.118411	1506.150398	-113.825708	1151.929477	1463.736627	-283.935766	1041.550379	1547.066406	-292.697464	1090.210412	1423.589920	-64.964108	1094.574923	1333.304037	-77.154516	1008.332578	1337.057970	-47.358265	990.196060	1222.308283	-19.871751	963.232763	1216.070382	-87.077024	980.934185	1491.817852	-504.195426	920.320248	1462.353941	-456.906879	919.126468	1409.247887	-527.815966	800.416450	1362.642351	-534.407795	796.328350	1361.298316	-460.419505	1087.584801	1216.980313	-35.612098	1237.961669	1173.549131	-121.608706	1218.509191	1109.001889	-113.900924	854.971369	1303.550793	-555.922158	983.659728	1156.464028	-525.340253	927.217734	1120.139923	-532.776797	1015.324394	720.993546	-160.599175	
